<?xml version="1.0" encoding="UTF-8" standalone="no"?>
<!DOCTYPE svg PUBLIC "-//W3C//DTD SVG 1.1//EN" "http://www.w3.org/Graphics/SVG/1.1/DTD/svg11.dtd">
<svg xmlns="http://www.w3.org/2000/svg" version="1.1" viewBox="0.00 0.00 1024.00 1024.00">
<g stroke-width="2.00" fill="none" stroke-linecap="butt">
<path stroke="#7b8284" vector-effect="non-scaling-stroke" d="
  M 622.17 370.55
  C 635.75 433.32 630.58 507.57 574.49 547.52
  C 553.97 562.15 528.77 569.84 503.73 571.87
  A 0.55 0.55 0.0 0 0 503.22 572.47
  C 508.05 624.43 505.96 677.81 483.44 725.90
  Q 458.10 780.00 409.14 814.37
  C 400.90 820.16 390.85 825.95 381.51 831.49
  A 0.57 0.57 0.0 0 0 381.60 832.52
  Q 392.76 836.65 404.49 839.78
  C 462.88 855.35 524.01 855.38 582.51 840.59
  C 681.96 815.44 766.59 743.16 807.65 649.05
  Q 838.56 578.22 834.12 500.76
  C 831.47 454.45 819.67 411.72 799.56 370.09
  C 779.68 328.96 750.65 291.36 716.67 262.09
  C 658.05 211.58 580.95 182.01 503.00 180.88
  Q 482.06 180.58 474.00 181.04
  C 407.52 184.85 340.78 209.84 288.70 251.47
  C 252.79 280.17 222.39 314.56 200.18 355.20
  Q 165.43 418.79 158.80 490.51
  C 145.45 634.80 229.88 768.73 362.52 825.82
  A 1.76 1.76 0.0 0 0 364.17 825.68
  Q 371.45 820.91 378.52 815.27
  C 409.02 790.89 415.65 749.63 400.19 714.52
  C 392.15 696.29 378.73 690.25 359.25 692.04
  Q 339.53 693.85 319.77 692.54
  Q 312.06 692.03 305.77 689.90
  C 291.43 685.02 280.89 671.16 286.55 655.28
  Q 289.43 647.23 289.56 644.50
  C 290.08 633.63 285.12 627.95 279.92 619.33
  Q 278.22 616.53 278.68 613.65
  C 279.47 608.76 287.22 603.38 281.38 598.62
  Q 277.59 595.53 273.78 592.47
  Q 270.39 589.74 272.19 585.72
  C 275.41 578.49 278.51 572.33 276.07 563.88
  C 272.83 552.69 262.65 554.23 255.04 548.62
  C 248.01 543.44 247.54 535.91 251.20 528.32
  C 255.28 519.86 260.28 511.81 264.90 503.63
  C 271.46 492.01 278.52 480.49 284.98 468.71
  Q 286.02 466.81 285.48 464.99
  C 282.33 454.53 279.42 444.38 277.92 434.16
  C 270.80 385.87 288.61 336.99 318.06 298.80
  C 352.52 254.12 407.73 222.91 464.38 217.37
  C 466.55 217.16 467.40 215.52 468.70 214.27
  Q 476.59 206.65 483.61 198.25
  C 485.23 196.31 487.76 195.22 489.79 196.90
  C 491.73 198.50 493.39 204.85 494.39 207.53
  Q 495.13 209.50 499.81 216.18
  Q 504.83 223.34 516.75 237.23
  C 552.17 278.51 577.33 328.09 561.29 383.74
  A 2.29 2.28 88.8 0 1 559.81 385.29
  C 537.94 392.71 519.68 407.04 506.23 426.47
  Q 502.87 431.33 499.83 435.82
  A 3.18 3.11 62.3 0 0 499.29 437.62
  Q 499.45 452.63 499.75 467.54
  C 499.79 469.13 499.51 470.74 499.34 472.33
  Q 499.32 472.44 499.42 472.50
  L 499.64 472.63
  A 0.47 0.46 -69.6 0 0 500.33 472.31
  Q 501.31 466.83 503.80 461.81
  C 511.97 445.41 520.57 431.67 534.66 418.16
  Q 549.08 404.33 566.47 394.50
  C 584.13 384.50 602.93 377.83 621.67 370.28
  A 0.37 0.37 0.0 0 1 622.17 370.55"
/>
<path stroke="#7b8284" vector-effect="non-scaling-stroke" d="
  M 485.81 285.01
  Q 487.97 279.69 486.90 285.34
  C 484.25 299.31 479.86 316.93 484.28 330.95
  C 486.25 337.18 491.71 344.64 498.52 346.13
  A 0.45 0.45 0.0 0 1 498.88 346.56
  L 499.62 372.25
  Q 499.70 374.96 500.36 372.33
  C 501.93 366.11 505.91 360.87 510.37 356.06
  C 521.38 344.17 543.02 338.21 542.10 318.51
  C 542.01 316.52 542.18 312.56 541.20 310.85
  A 0.84 0.84 0.0 0 0 539.68 310.98
  Q 534.37 325.99 519.43 331.59
  Q 509.19 335.43 498.87 338.74
  A 0.38 0.38 0.0 0 1 498.37 338.37
  Q 499.19 318.76 494.45 299.75
  Q 493.18 294.66 488.61 281.13
  C 487.85 278.88 487.54 276.36 487.55 274.25
  Q 487.63 245.37 487.34 216.50
  Q 487.29 212.57 487.02 209.58
  Q 486.76 206.77 485.17 209.10
  Q 484.51 210.08 483.07 211.57
  C 471.47 223.63 459.05 236.19 449.10 248.35
  Q 436.34 263.94 425.89 282.93
  C 410.25 311.38 402.34 347.11 411.83 378.99
  C 412.78 382.18 413.67 385.30 416.80 386.96
  C 430.50 394.20 443.02 400.40 455.99 410.86
  C 459.58 413.76 462.73 417.17 465.95 420.54
  Q 467.57 422.24 468.23 424.48
  A 0.92 0.92 0.0 0 1 467.62 425.62
  Q 461.70 427.42 456.88 423.44
  Q 438.22 408.01 417.14 396.12
  Q 403.21 388.26 392.99 384.55
  Q 372.21 377.02 351.15 370.02
  A 0.70 0.70 0.0 0 0 350.24 370.56
  Q 345.89 393.81 344.64 417.49
  C 342.73 453.77 348.37 487.39 369.06 517.69
  C 390.81 549.53 425.11 567.87 463.20 571.43
  Q 470.55 572.12 477.87 572.42
  A 0.27 0.27 0.0 0 0 478.15 572.15
  C 478.41 532.26 453.48 501.55 422.46 479.77
  Q 412.36 472.68 402.02 465.92
  C 386.52 455.80 377.99 441.58 383.81 422.76
  Q 384.04 422.01 384.37 422.73
  Q 390.64 436.56 402.48 445.24
  Q 406.41 448.13 417.19 453.17
  Q 432.09 460.14 440.74 466.03
  Q 462.40 480.78 476.81 502.42
  Q 477.48 503.42 477.74 502.25
  C 477.90 501.49 477.51 500.36 477.51 499.59
  Q 477.53 439.80 477.22 380.00
  Q 477.20 375.28 475.99 373.02
  Q 469.08 360.07 458.99 353.53
  Q 451.41 348.60 443.96 343.49
  C 433.19 336.11 427.64 324.83 432.77 312.17
  Q 433.28 310.91 433.61 312.22
  C 436.69 324.22 442.70 330.95 454.26 335.20
  Q 457.67 336.46 470.66 341.19
  Q 473.36 342.18 475.77 343.68
  A 0.29 0.29 0.0 0 0 476.22 343.41
  C 475.57 331.93 475.56 320.01 478.32 308.76
  Q 481.61 295.33 485.81 285.01"
/>
<path stroke="#7b8284" vector-effect="non-scaling-stroke" d="
  M 527.33 385.80
  C 531.39 374.79 537.35 369.09 545.79 361.65
  A 0.54 0.53 -21.5 0 0 545.98 361.22
  Q 545.95 360.54 545.25 360.66
  C 531.37 363.05 520.65 370.94 511.83 382.58
  Q 506.35 389.82 503.60 392.84
  C 502.44 394.12 499.46 395.18 499.48 397.75
  Q 499.55 411.94 499.76 423.98
  Q 499.84 428.75 500.95 424.16
  C 502.23 418.84 505.52 414.30 509.25 409.35
  C 515.47 401.10 523.70 395.63 527.33 385.80"
/>
<path stroke="#7b8284" vector-effect="non-scaling-stroke" d="
  M 576.46 462.72
  C 590.96 452.65 595.35 438.91 591.41 422.00
  Q 590.56 418.35 589.36 421.90
  Q 583.25 440.04 565.08 448.82
  Q 556.44 453.00 547.94 457.42
  C 529.35 467.11 512.66 481.65 502.36 500.10
  C 500.75 503.00 499.45 505.32 499.47 508.84
  Q 499.56 528.97 499.39 549.09
  Q 499.39 549.31 499.61 549.33
  L 499.62 549.33
  Q 499.85 549.35 499.88 549.13
  Q 500.65 544.10 502.72 539.44
  Q 514.29 513.46 534.90 493.91
  C 548.86 480.68 562.02 472.74 576.46 462.72"
/>
<path stroke="#7b8284" vector-effect="non-scaling-stroke" d="
  M 638.18 272.35
  C 639.34 284.08 642.76 287.48 654.49 288.66
  Q 655.06 288.72 654.95 288.16
  Q 654.42 285.51 653.06 281.44
  C 650.80 274.68 645.50 273.58 638.62 271.96
  A 0.36 0.36 0.0 0 0 638.18 272.35"
/>
<path stroke="#7b8284" vector-effect="non-scaling-stroke" d="
  M 710.2234 305.8897
  A 3.34 2.81 90.8 0 0 713.0797 302.5892
  A 3.34 2.81 90.8 0 0 710.3166 299.2103
  A 3.34 2.81 90.8 0 0 707.4603 302.5108
  A 3.34 2.81 90.8 0 0 710.2234 305.8897"
/>
<path stroke="#7b8284" vector-effect="non-scaling-stroke" d="
  M 238.58 376.41
  C 237.80 378.02 235.87 381.76 237.72 383.04
  Q 239.38 384.19 240.48 383.53
  Q 245.73 380.38 244.88 374.69
  C 244.53 372.34 244.53 370.78 245.66 368.97
  Q 250.97 360.45 254.32 354.14
  A 1.15 1.15 0.0 0 0 253.68 352.51
  L 253.16 352.32
  A 1.32 1.31 -64.3 0 0 251.61 352.87
  Q 244.40 364.34 238.58 376.41"
/>
<path stroke="#7b8284" vector-effect="non-scaling-stroke" d="
  M 742.2198 364.7968
  A 5.62 3.28 62.1 0 0 742.4888 358.2952
  A 5.62 3.28 62.1 0 0 736.9602 354.8632
  A 5.62 3.28 62.1 0 0 736.6912 361.3648
  A 5.62 3.28 62.1 0 0 742.2198 364.7968"
/>
<path stroke="#7b8284" vector-effect="non-scaling-stroke" d="
  M 766.2408 418.9364
  A 6.06 3.13 73.7 0 0 767.5442 412.2415
  A 6.06 3.13 73.7 0 0 762.8392 407.3036
  A 6.06 3.13 73.7 0 0 761.5358 413.9985
  A 6.06 3.13 73.7 0 0 766.2408 418.9364"
/>
<path stroke="#7b8284" vector-effect="non-scaling-stroke" d="
  M 215.1863 432.1327
  A 3.46 2.99 97.2 0 0 218.5864 429.0747
  A 3.46 2.99 97.2 0 0 216.0537 425.2673
  A 3.46 2.99 97.2 0 0 212.6536 428.3253
  A 3.46 2.99 97.2 0 0 215.1863 432.1327"
/>
<path stroke="#7b8284" vector-effect="non-scaling-stroke" d="
  M 214.71 466.54
  C 202.30 474.29 199.40 478.81 202.63 493.78
  Q 202.74 494.27 203.15 493.98
  Q 208.13 490.37 211.39 487.64
  C 217.80 482.26 216.88 474.12 215.27 466.78
  Q 215.16 466.26 214.71 466.54"
/>
<path stroke="#7b8284" vector-effect="non-scaling-stroke" d="
  M 776.08 508.22
  Q 775.60 507.96 775.46 508.49
  C 772.85 518.54 774.47 523.96 784.09 528.99
  Q 784.54 529.22 784.74 528.75
  C 788.73 518.96 784.60 512.86 776.08 508.22"
/>
<path stroke="#7b8284" vector-effect="non-scaling-stroke" d="
  M 773.0278 621.0281
  A 4.92 2.83 117.9 0 0 777.8311 618.0042
  A 4.92 2.83 117.9 0 0 777.6322 612.3319
  A 4.92 2.83 117.9 0 0 772.8289 615.3558
  A 4.92 2.83 117.9 0 0 773.0278 621.0281"
/>
<path stroke="#7b8284" vector-effect="non-scaling-stroke" d="
  M 745.7047 663.8725
  A 3.39 2.98 86.2 0 0 748.4534 660.2925
  A 3.39 2.98 86.2 0 0 745.2553 657.1075
  A 3.39 2.98 86.2 0 0 742.5066 660.6875
  A 3.39 2.98 86.2 0 0 745.7047 663.8725"
/>
<path stroke="#7b8284" vector-effect="non-scaling-stroke" d="
  M 685.57 739.52
  C 696.90 738.17 700.58 735.64 701.56 723.80
  Q 701.59 723.39 701.19 723.47
  C 690.29 725.59 686.53 728.31 685.26 739.21
  Q 685.22 739.56 685.57 739.52"
/>
<path stroke="#7b8284" vector-effect="non-scaling-stroke" d="
  M 660.90 749.03
  A 1.17 1.17 0.0 0 0 660.24 750.05
  L 660.21 751.12
  A 1.17 1.17 0.0 0 0 661.89 752.21
  L 673.77 746.44
  A 1.17 1.17 0.0 0 0 674.42 745.48
  L 674.51 744.40
  A 1.17 1.17 0.0 0 0 672.83 743.25
  L 660.90 749.03"
/>
<path stroke="#7b8284" vector-effect="non-scaling-stroke" d="
  M 435.11 362.52
  Q 432.29 361.41 430.99 361.19
  Q 427.65 360.63 430.38 362.51
  Q 437.09 367.12 441.64 374.53
  C 446.09 381.77 447.62 391.06 454.22 396.55
  C 459.99 401.34 466.47 405.97 471.24 411.81
  A 0.18 0.17 -65.5 0 0 471.55 411.69
  L 471.55 398.37
  A 5.44 5.36 -65.1 0 0 470.32 394.93
  C 460.20 382.67 450.58 368.63 435.11 362.52"
/>
</g>
<path fill="#f2f3f5" d="
  M 0.00 0.00
  L 1024.00 0.00
  L 1024.00 1024.00
  L 0.00 1024.00
  L 0.00 0.00
  Z
  M 622.17 370.55
  C 635.75 433.32 630.58 507.57 574.49 547.52
  C 553.97 562.15 528.77 569.84 503.73 571.87
  A 0.55 0.55 0.0 0 0 503.22 572.47
  C 508.05 624.43 505.96 677.81 483.44 725.90
  Q 458.10 780.00 409.14 814.37
  C 400.90 820.16 390.85 825.95 381.51 831.49
  A 0.57 0.57 0.0 0 0 381.60 832.52
  Q 392.76 836.65 404.49 839.78
  C 462.88 855.35 524.01 855.38 582.51 840.59
  C 681.96 815.44 766.59 743.16 807.65 649.05
  Q 838.56 578.22 834.12 500.76
  C 831.47 454.45 819.67 411.72 799.56 370.09
  C 779.68 328.96 750.65 291.36 716.67 262.09
  C 658.05 211.58 580.95 182.01 503.00 180.88
  Q 482.06 180.58 474.00 181.04
  C 407.52 184.85 340.78 209.84 288.70 251.47
  C 252.79 280.17 222.39 314.56 200.18 355.20
  Q 165.43 418.79 158.80 490.51
  C 145.45 634.80 229.88 768.73 362.52 825.82
  A 1.76 1.76 0.0 0 0 364.17 825.68
  Q 371.45 820.91 378.52 815.27
  C 409.02 790.89 415.65 749.63 400.19 714.52
  C 392.15 696.29 378.73 690.25 359.25 692.04
  Q 339.53 693.85 319.77 692.54
  Q 312.06 692.03 305.77 689.90
  C 291.43 685.02 280.89 671.16 286.55 655.28
  Q 289.43 647.23 289.56 644.50
  C 290.08 633.63 285.12 627.95 279.92 619.33
  Q 278.22 616.53 278.68 613.65
  C 279.47 608.76 287.22 603.38 281.38 598.62
  Q 277.59 595.53 273.78 592.47
  Q 270.39 589.74 272.19 585.72
  C 275.41 578.49 278.51 572.33 276.07 563.88
  C 272.83 552.69 262.65 554.23 255.04 548.62
  C 248.01 543.44 247.54 535.91 251.20 528.32
  C 255.28 519.86 260.28 511.81 264.90 503.63
  C 271.46 492.01 278.52 480.49 284.98 468.71
  Q 286.02 466.81 285.48 464.99
  C 282.33 454.53 279.42 444.38 277.92 434.16
  C 270.80 385.87 288.61 336.99 318.06 298.80
  C 352.52 254.12 407.73 222.91 464.38 217.37
  C 466.55 217.16 467.40 215.52 468.70 214.27
  Q 476.59 206.65 483.61 198.25
  C 485.23 196.31 487.76 195.22 489.79 196.90
  C 491.73 198.50 493.39 204.85 494.39 207.53
  Q 495.13 209.50 499.81 216.18
  Q 504.83 223.34 516.75 237.23
  C 552.17 278.51 577.33 328.09 561.29 383.74
  A 2.29 2.28 88.8 0 1 559.81 385.29
  C 537.94 392.71 519.68 407.04 506.23 426.47
  Q 502.87 431.33 499.83 435.82
  A 3.18 3.11 62.3 0 0 499.29 437.62
  Q 499.45 452.63 499.75 467.54
  C 499.79 469.13 499.51 470.74 499.34 472.33
  Q 499.32 472.44 499.42 472.50
  L 499.64 472.63
  A 0.47 0.46 -69.6 0 0 500.33 472.31
  Q 501.31 466.83 503.80 461.81
  C 511.97 445.41 520.57 431.67 534.66 418.16
  Q 549.08 404.33 566.47 394.50
  C 584.13 384.50 602.93 377.83 621.67 370.28
  A 0.37 0.37 0.0 0 1 622.17 370.55
  Z
  M 485.81 285.01
  Q 487.97 279.69 486.90 285.34
  C 484.25 299.31 479.86 316.93 484.28 330.95
  C 486.25 337.18 491.71 344.64 498.52 346.13
  A 0.45 0.45 0.0 0 1 498.88 346.56
  L 499.62 372.25
  Q 499.70 374.96 500.36 372.33
  C 501.93 366.11 505.91 360.87 510.37 356.06
  C 521.38 344.17 543.02 338.21 542.10 318.51
  C 542.01 316.52 542.18 312.56 541.20 310.85
  A 0.84 0.84 0.0 0 0 539.68 310.98
  Q 534.37 325.99 519.43 331.59
  Q 509.19 335.43 498.87 338.74
  A 0.38 0.38 0.0 0 1 498.37 338.37
  Q 499.19 318.76 494.45 299.75
  Q 493.18 294.66 488.61 281.13
  C 487.85 278.88 487.54 276.36 487.55 274.25
  Q 487.63 245.37 487.34 216.50
  Q 487.29 212.57 487.02 209.58
  Q 486.76 206.77 485.17 209.10
  Q 484.51 210.08 483.07 211.57
  C 471.47 223.63 459.05 236.19 449.10 248.35
  Q 436.34 263.94 425.89 282.93
  C 410.25 311.38 402.34 347.11 411.83 378.99
  C 412.78 382.18 413.67 385.30 416.80 386.96
  C 430.50 394.20 443.02 400.40 455.99 410.86
  C 459.58 413.76 462.73 417.17 465.95 420.54
  Q 467.57 422.24 468.23 424.48
  A 0.92 0.92 0.0 0 1 467.62 425.62
  Q 461.70 427.42 456.88 423.44
  Q 438.22 408.01 417.14 396.12
  Q 403.21 388.26 392.99 384.55
  Q 372.21 377.02 351.15 370.02
  A 0.70 0.70 0.0 0 0 350.24 370.56
  Q 345.89 393.81 344.64 417.49
  C 342.73 453.77 348.37 487.39 369.06 517.69
  C 390.81 549.53 425.11 567.87 463.20 571.43
  Q 470.55 572.12 477.87 572.42
  A 0.27 0.27 0.0 0 0 478.15 572.15
  C 478.41 532.26 453.48 501.55 422.46 479.77
  Q 412.36 472.68 402.02 465.92
  C 386.52 455.80 377.99 441.58 383.81 422.76
  Q 384.04 422.01 384.37 422.73
  Q 390.64 436.56 402.48 445.24
  Q 406.41 448.13 417.19 453.17
  Q 432.09 460.14 440.74 466.03
  Q 462.40 480.78 476.81 502.42
  Q 477.48 503.42 477.74 502.25
  C 477.90 501.49 477.51 500.36 477.51 499.59
  Q 477.53 439.80 477.22 380.00
  Q 477.20 375.28 475.99 373.02
  Q 469.08 360.07 458.99 353.53
  Q 451.41 348.60 443.96 343.49
  C 433.19 336.11 427.64 324.83 432.77 312.17
  Q 433.28 310.91 433.61 312.22
  C 436.69 324.22 442.70 330.95 454.26 335.20
  Q 457.67 336.46 470.66 341.19
  Q 473.36 342.18 475.77 343.68
  A 0.29 0.29 0.0 0 0 476.22 343.41
  C 475.57 331.93 475.56 320.01 478.32 308.76
  Q 481.61 295.33 485.81 285.01
  Z
  M 527.33 385.80
  C 531.39 374.79 537.35 369.09 545.79 361.65
  A 0.54 0.53 -21.5 0 0 545.98 361.22
  Q 545.95 360.54 545.25 360.66
  C 531.37 363.05 520.65 370.94 511.83 382.58
  Q 506.35 389.82 503.60 392.84
  C 502.44 394.12 499.46 395.18 499.48 397.75
  Q 499.55 411.94 499.76 423.98
  Q 499.84 428.75 500.95 424.16
  C 502.23 418.84 505.52 414.30 509.25 409.35
  C 515.47 401.10 523.70 395.63 527.33 385.80
  Z
  M 576.46 462.72
  C 590.96 452.65 595.35 438.91 591.41 422.00
  Q 590.56 418.35 589.36 421.90
  Q 583.25 440.04 565.08 448.82
  Q 556.44 453.00 547.94 457.42
  C 529.35 467.11 512.66 481.65 502.36 500.10
  C 500.75 503.00 499.45 505.32 499.47 508.84
  Q 499.56 528.97 499.39 549.09
  Q 499.39 549.31 499.61 549.33
  L 499.62 549.33
  Q 499.85 549.35 499.88 549.13
  Q 500.65 544.10 502.72 539.44
  Q 514.29 513.46 534.90 493.91
  C 548.86 480.68 562.02 472.74 576.46 462.72
  Z"
/>
<path fill="#031112" d="
  M 622.17 370.55
  A 0.37 0.37 0.0 0 0 621.67 370.28
  C 602.93 377.83 584.13 384.50 566.47 394.50
  Q 549.08 404.33 534.66 418.16
  C 520.57 431.67 511.97 445.41 503.80 461.81
  Q 501.31 466.83 500.33 472.31
  A 0.47 0.46 -69.6 0 1 499.64 472.63
  L 499.42 472.50
  Q 499.32 472.44 499.34 472.33
  C 499.51 470.74 499.79 469.13 499.75 467.54
  Q 499.45 452.63 499.29 437.62
  A 3.18 3.11 62.3 0 1 499.83 435.82
  Q 502.87 431.33 506.23 426.47
  C 519.68 407.04 537.94 392.71 559.81 385.29
  A 2.29 2.28 88.8 0 0 561.29 383.74
  C 577.33 328.09 552.17 278.51 516.75 237.23
  Q 504.83 223.34 499.81 216.18
  Q 495.13 209.50 494.39 207.53
  C 493.39 204.85 491.73 198.50 489.79 196.90
  C 487.76 195.22 485.23 196.31 483.61 198.25
  Q 476.59 206.65 468.70 214.27
  C 467.40 215.52 466.55 217.16 464.38 217.37
  C 407.73 222.91 352.52 254.12 318.06 298.80
  C 288.61 336.99 270.80 385.87 277.92 434.16
  C 279.42 444.38 282.33 454.53 285.48 464.99
  Q 286.02 466.81 284.98 468.71
  C 278.52 480.49 271.46 492.01 264.90 503.63
  C 260.28 511.81 255.28 519.86 251.20 528.32
  C 247.54 535.91 248.01 543.44 255.04 548.62
  C 262.65 554.23 272.83 552.69 276.07 563.88
  C 278.51 572.33 275.41 578.49 272.19 585.72
  Q 270.39 589.74 273.78 592.47
  Q 277.59 595.53 281.38 598.62
  C 287.22 603.38 279.47 608.76 278.68 613.65
  Q 278.22 616.53 279.92 619.33
  C 285.12 627.95 290.08 633.63 289.56 644.50
  Q 289.43 647.23 286.55 655.28
  C 280.89 671.16 291.43 685.02 305.77 689.90
  Q 312.06 692.03 319.77 692.54
  Q 339.53 693.85 359.25 692.04
  C 378.73 690.25 392.15 696.29 400.19 714.52
  C 415.65 749.63 409.02 790.89 378.52 815.27
  Q 371.45 820.91 364.17 825.68
  A 1.76 1.76 0.0 0 1 362.52 825.82
  C 229.88 768.73 145.45 634.80 158.80 490.51
  Q 165.43 418.79 200.18 355.20
  C 222.39 314.56 252.79 280.17 288.70 251.47
  C 340.78 209.84 407.52 184.85 474.00 181.04
  Q 482.06 180.58 503.00 180.88
  C 580.95 182.01 658.05 211.58 716.67 262.09
  C 750.65 291.36 779.68 328.96 799.56 370.09
  C 819.67 411.72 831.47 454.45 834.12 500.76
  Q 838.56 578.22 807.65 649.05
  C 766.59 743.16 681.96 815.44 582.51 840.59
  C 524.01 855.38 462.88 855.35 404.49 839.78
  Q 392.76 836.65 381.60 832.52
  A 0.57 0.57 0.0 0 1 381.51 831.49
  C 390.85 825.95 400.90 820.16 409.14 814.37
  Q 458.10 780.00 483.44 725.90
  C 505.96 677.81 508.05 624.43 503.22 572.47
  A 0.55 0.55 0.0 0 1 503.73 571.87
  C 528.77 569.84 553.97 562.15 574.49 547.52
  C 630.58 507.57 635.75 433.32 622.17 370.55
  Z
  M 638.18 272.35
  C 639.34 284.08 642.76 287.48 654.49 288.66
  Q 655.06 288.72 654.95 288.16
  Q 654.42 285.51 653.06 281.44
  C 650.80 274.68 645.50 273.58 638.62 271.96
  A 0.36 0.36 0.0 0 0 638.18 272.35
  Z
  M 710.2234 305.8897
  A 3.34 2.81 90.8 0 0 713.0797 302.5892
  A 3.34 2.81 90.8 0 0 710.3166 299.2103
  A 3.34 2.81 90.8 0 0 707.4603 302.5108
  A 3.34 2.81 90.8 0 0 710.2234 305.8897
  Z
  M 238.58 376.41
  C 237.80 378.02 235.87 381.76 237.72 383.04
  Q 239.38 384.19 240.48 383.53
  Q 245.73 380.38 244.88 374.69
  C 244.53 372.34 244.53 370.78 245.66 368.97
  Q 250.97 360.45 254.32 354.14
  A 1.15 1.15 0.0 0 0 253.68 352.51
  L 253.16 352.32
  A 1.32 1.31 -64.3 0 0 251.61 352.87
  Q 244.40 364.34 238.58 376.41
  Z
  M 742.2198 364.7968
  A 5.62 3.28 62.1 0 0 742.4888 358.2952
  A 5.62 3.28 62.1 0 0 736.9602 354.8632
  A 5.62 3.28 62.1 0 0 736.6912 361.3648
  A 5.62 3.28 62.1 0 0 742.2198 364.7968
  Z
  M 766.2408 418.9364
  A 6.06 3.13 73.7 0 0 767.5442 412.2415
  A 6.06 3.13 73.7 0 0 762.8392 407.3036
  A 6.06 3.13 73.7 0 0 761.5358 413.9985
  A 6.06 3.13 73.7 0 0 766.2408 418.9364
  Z
  M 215.1863 432.1327
  A 3.46 2.99 97.2 0 0 218.5864 429.0747
  A 3.46 2.99 97.2 0 0 216.0537 425.2673
  A 3.46 2.99 97.2 0 0 212.6536 428.3253
  A 3.46 2.99 97.2 0 0 215.1863 432.1327
  Z
  M 214.71 466.54
  C 202.30 474.29 199.40 478.81 202.63 493.78
  Q 202.74 494.27 203.15 493.98
  Q 208.13 490.37 211.39 487.64
  C 217.80 482.26 216.88 474.12 215.27 466.78
  Q 215.16 466.26 214.71 466.54
  Z
  M 776.08 508.22
  Q 775.60 507.96 775.46 508.49
  C 772.85 518.54 774.47 523.96 784.09 528.99
  Q 784.54 529.22 784.74 528.75
  C 788.73 518.96 784.60 512.86 776.08 508.22
  Z
  M 773.0278 621.0281
  A 4.92 2.83 117.9 0 0 777.8311 618.0042
  A 4.92 2.83 117.9 0 0 777.6322 612.3319
  A 4.92 2.83 117.9 0 0 772.8289 615.3558
  A 4.92 2.83 117.9 0 0 773.0278 621.0281
  Z
  M 745.7047 663.8725
  A 3.39 2.98 86.2 0 0 748.4534 660.2925
  A 3.39 2.98 86.2 0 0 745.2553 657.1075
  A 3.39 2.98 86.2 0 0 742.5066 660.6875
  A 3.39 2.98 86.2 0 0 745.7047 663.8725
  Z
  M 685.57 739.52
  C 696.90 738.17 700.58 735.64 701.56 723.80
  Q 701.59 723.39 701.19 723.47
  C 690.29 725.59 686.53 728.31 685.26 739.21
  Q 685.22 739.56 685.57 739.52
  Z
  M 660.90 749.03
  A 1.17 1.17 0.0 0 0 660.24 750.05
  L 660.21 751.12
  A 1.17 1.17 0.0 0 0 661.89 752.21
  L 673.77 746.44
  A 1.17 1.17 0.0 0 0 674.42 745.48
  L 674.51 744.40
  A 1.17 1.17 0.0 0 0 672.83 743.25
  L 660.90 749.03
  Z"
/>
<path fill="#031112" d="
  M 485.81 285.01
  Q 481.61 295.33 478.32 308.76
  C 475.56 320.01 475.57 331.93 476.22 343.41
  A 0.29 0.29 0.0 0 1 475.77 343.68
  Q 473.36 342.18 470.66 341.19
  Q 457.67 336.46 454.26 335.20
  C 442.70 330.95 436.69 324.22 433.61 312.22
  Q 433.28 310.91 432.77 312.17
  C 427.64 324.83 433.19 336.11 443.96 343.49
  Q 451.41 348.60 458.99 353.53
  Q 469.08 360.07 475.99 373.02
  Q 477.20 375.28 477.22 380.00
  Q 477.53 439.80 477.51 499.59
  C 477.51 500.36 477.90 501.49 477.74 502.25
  Q 477.48 503.42 476.81 502.42
  Q 462.40 480.78 440.74 466.03
  Q 432.09 460.14 417.19 453.17
  Q 406.41 448.13 402.48 445.24
  Q 390.64 436.56 384.37 422.73
  Q 384.04 422.01 383.81 422.76
  C 377.99 441.58 386.52 455.80 402.02 465.92
  Q 412.36 472.68 422.46 479.77
  C 453.48 501.55 478.41 532.26 478.15 572.15
  A 0.27 0.27 0.0 0 1 477.87 572.42
  Q 470.55 572.12 463.20 571.43
  C 425.11 567.87 390.81 549.53 369.06 517.69
  C 348.37 487.39 342.73 453.77 344.64 417.49
  Q 345.89 393.81 350.24 370.56
  A 0.70 0.70 0.0 0 1 351.15 370.02
  Q 372.21 377.02 392.99 384.55
  Q 403.21 388.26 417.14 396.12
  Q 438.22 408.01 456.88 423.44
  Q 461.70 427.42 467.62 425.62
  A 0.92 0.92 0.0 0 0 468.23 424.48
  Q 467.57 422.24 465.95 420.54
  C 462.73 417.17 459.58 413.76 455.99 410.86
  C 443.02 400.40 430.50 394.20 416.80 386.96
  C 413.67 385.30 412.78 382.18 411.83 378.99
  C 402.34 347.11 410.25 311.38 425.89 282.93
  Q 436.34 263.94 449.10 248.35
  C 459.05 236.19 471.47 223.63 483.07 211.57
  Q 484.51 210.08 485.17 209.10
  Q 486.76 206.77 487.02 209.58
  Q 487.29 212.57 487.34 216.50
  Q 487.63 245.37 487.55 274.25
  C 487.54 276.36 487.85 278.88 488.61 281.13
  Q 493.18 294.66 494.45 299.75
  Q 499.19 318.76 498.37 338.37
  A 0.38 0.38 0.0 0 0 498.87 338.74
  Q 509.19 335.43 519.43 331.59
  Q 534.37 325.99 539.68 310.98
  A 0.84 0.84 0.0 0 1 541.20 310.85
  C 542.18 312.56 542.01 316.52 542.10 318.51
  C 543.02 338.21 521.38 344.17 510.37 356.06
  C 505.91 360.87 501.93 366.11 500.36 372.33
  Q 499.70 374.96 499.62 372.25
  L 498.88 346.56
  A 0.45 0.45 0.0 0 0 498.52 346.13
  C 491.71 344.64 486.25 337.18 484.28 330.95
  C 479.86 316.93 484.25 299.31 486.90 285.34
  Q 487.97 279.69 485.81 285.01
  Z
  M 435.11 362.52
  Q 432.29 361.41 430.99 361.19
  Q 427.65 360.63 430.38 362.51
  Q 437.09 367.12 441.64 374.53
  C 446.09 381.77 447.62 391.06 454.22 396.55
  C 459.99 401.34 466.47 405.97 471.24 411.81
  A 0.18 0.17 -65.5 0 0 471.55 411.69
  L 471.55 398.37
  A 5.44 5.36 -65.1 0 0 470.32 394.93
  C 460.20 382.67 450.58 368.63 435.11 362.52
  Z"
/>
<path fill="#f2f3f5" d="
  M 654.49 288.66
  C 642.76 287.48 639.34 284.08 638.18 272.35
  A 0.36 0.36 0.0 0 1 638.62 271.96
  C 645.50 273.58 650.80 274.68 653.06 281.44
  Q 654.42 285.51 654.95 288.16
  Q 655.06 288.72 654.49 288.66
  Z"
/>
<ellipse fill="#f2f3f5" cx="0.00" cy="0.00" transform="translate(710.27,302.55) rotate(90.8)" rx="3.34" ry="2.81"/>
<path fill="#f2f3f5" d="
  M 238.58 376.41
  Q 244.40 364.34 251.61 352.87
  A 1.32 1.31 -64.3 0 1 253.16 352.32
  L 253.68 352.51
  A 1.15 1.15 0.0 0 1 254.32 354.14
  Q 250.97 360.45 245.66 368.97
  C 244.53 370.78 244.53 372.34 244.88 374.69
  Q 245.73 380.38 240.48 383.53
  Q 239.38 384.19 237.72 383.04
  C 235.87 381.76 237.80 378.02 238.58 376.41
  Z"
/>
<ellipse fill="#f2f3f5" cx="0.00" cy="0.00" transform="translate(739.59,359.83) rotate(62.1)" rx="5.62" ry="3.28"/>
<path fill="#031112" d="
  M 527.33 385.80
  C 523.70 395.63 515.47 401.10 509.25 409.35
  C 505.52 414.30 502.23 418.84 500.95 424.16
  Q 499.84 428.75 499.76 423.98
  Q 499.55 411.94 499.48 397.75
  C 499.46 395.18 502.44 394.12 503.60 392.84
  Q 506.35 389.82 511.83 382.58
  C 520.65 370.94 531.37 363.05 545.25 360.66
  Q 545.95 360.54 545.98 361.22
  A 0.54 0.53 -21.5 0 1 545.79 361.65
  C 537.35 369.09 531.39 374.79 527.33 385.80
  Z"
/>
<path fill="#f2f3f5" d="
  M 435.11 362.52
  C 450.58 368.63 460.20 382.67 470.32 394.93
  A 5.44 5.36 -65.1 0 1 471.55 398.37
  L 471.55 411.69
  A 0.18 0.17 -65.5 0 1 471.24 411.81
  C 466.47 405.97 459.99 401.34 454.22 396.55
  C 447.62 391.06 446.09 381.77 441.64 374.53
  Q 437.09 367.12 430.38 362.51
  Q 427.65 360.63 430.99 361.19
  Q 432.29 361.41 435.11 362.52
  Z"
/>
<ellipse fill="#f2f3f5" cx="0.00" cy="0.00" transform="translate(764.54,413.12) rotate(73.7)" rx="6.06" ry="3.13"/>
<path fill="#031112" d="
  M 591.41 422.00
  C 595.35 438.91 590.96 452.65 576.46 462.72
  C 562.02 472.74 548.86 480.68 534.90 493.91
  Q 514.29 513.46 502.72 539.44
  Q 500.65 544.10 499.88 549.13
  Q 499.85 549.35 499.62 549.33
  L 499.61 549.33
  Q 499.39 549.31 499.39 549.09
  Q 499.56 528.97 499.47 508.84
  C 499.45 505.32 500.75 503.00 502.36 500.10
  C 512.66 481.65 529.35 467.11 547.94 457.42
  Q 556.44 453.00 565.08 448.82
  Q 583.25 440.04 589.36 421.90
  Q 590.56 418.35 591.41 422.00
  Z"
/>
<ellipse fill="#f2f3f5" cx="0.00" cy="0.00" transform="translate(215.62,428.70) rotate(97.2)" rx="3.46" ry="2.99"/>
<path fill="#f2f3f5" d="
  M 202.63 493.78
  C 199.40 478.81 202.30 474.29 214.71 466.54
  Q 215.16 466.26 215.27 466.78
  C 216.88 474.12 217.80 482.26 211.39 487.64
  Q 208.13 490.37 203.15 493.98
  Q 202.74 494.27 202.63 493.78
  Z"
/>
<path fill="#f2f3f5" d="
  M 776.08 508.22
  C 784.60 512.86 788.73 518.96 784.74 528.75
  Q 784.54 529.22 784.09 528.99
  C 774.47 523.96 772.85 518.54 775.46 508.49
  Q 775.60 507.96 776.08 508.22
  Z"
/>
<ellipse fill="#f2f3f5" cx="0.00" cy="0.00" transform="translate(775.33,616.68) rotate(117.9)" rx="4.92" ry="2.83"/>
<ellipse fill="#f2f3f5" cx="0.00" cy="0.00" transform="translate(745.48,660.49) rotate(86.2)" rx="3.39" ry="2.98"/>
<path fill="#f2f3f5" d="
  M 701.56 723.80
  C 700.58 735.64 696.90 738.17 685.57 739.52
  Q 685.22 739.56 685.26 739.21
  C 686.53 728.31 690.29 725.59 701.19 723.47
  Q 701.59 723.39 701.56 723.80
  Z"
/>
<path fill="#f2f3f5" d="
  M 660.90 749.03
  L 672.83 743.25
  A 1.17 1.17 0.0 0 1 674.51 744.40
  L 674.42 745.48
  A 1.17 1.17 0.0 0 1 673.77 746.44
  L 661.89 752.21
  A 1.17 1.17 0.0 0 1 660.21 751.12
  L 660.24 750.05
  A 1.17 1.17 0.0 0 1 660.90 749.03
  Z"
/>
</svg>
